<?xml version="1.0" standalone="no"?>
<!DOCTYPE svg PUBLIC "-//W3C//DTD SVG 20010904//EN"
 "http://www.w3.org/TR/2001/REC-SVG-20010904/DTD/svg10.dtd">
<svg version="1.0" xmlns="http://www.w3.org/2000/svg"
 width="135.000000pt" height="135.000000pt" viewBox="0 0 135.000000 135.000000"
 preserveAspectRatio="xMidYMid meet">
<g transform="translate(0.000000,135.000000) scale(0.100000,-0.100000)"
fill="#ff0000" stroke="none">
<path d="M523 1196 c-19 -9 -45 -35 -62 -61 l-30 -47 -22 35 c-36 55 -78 78
-128 72 -85 -11 -140 -62 -180 -171 -29 -76 -32 -96 -36 -209 -3 -108 16 -209
48 -259 57 -86 168 -79 218 14 29 54 24 110 -21 221 -22 54 -39 110 -38 125 3
27 29 56 35 39 2 -5 25 -53 51 -105 37 -75 53 -97 75 -104 38 -14 52 3 101
120 23 54 46 99 52 101 7 2 16 -10 22 -26 9 -25 6 -47 -15 -118 -69 -237 -72
-254 -69 -358 4 -120 29 -194 83 -250 46 -48 87 -64 150 -61 60 2 94 23 129
77 l25 40 29 -39 c51 -70 79 -82 152 -62 54 15 93 53 128 123 77 158 81 389 9
512 -28 47 -63 61 -135 56 -48 -3 -104 -88 -104 -157 0 -24 28 -106 60 -177
20 -45 21 -64 11 -135 -1 -2 -6 -2 -12 0 -6 2 -32 46 -58 98 -26 52 -58 102
-73 113 -25 19 -29 19 -51 4 -15 -9 -38 -50 -62 -109 -21 -51 -44 -99 -51
-107 -11 -12 -15 -10 -24 13 -15 41 -13 53 30 198 60 197 68 303 33 426 -17
61 -65 128 -110 154 -43 26 -120 32 -160 14z"/>
</g>
</svg>
